<?xml version="1.0" standalone="no"?>
<!DOCTYPE svg PUBLIC "-//W3C//DTD SVG 20010904//EN"
 "http://www.w3.org/TR/2001/REC-SVG-20010904/DTD/svg10.dtd">
<svg version="1.0" xmlns="http://www.w3.org/2000/svg"
 width="1920.000000pt" height="1920.000000pt" viewBox="0 0 1920.000000 1920.000000"
 preserveAspectRatio="xMidYMid meet">
<metadata>
Created by potrace 1.14, written by Peter Selinger 2001-2017
</metadata>
<g transform="translate(0.000000,1920.000000) scale(0.100000,-0.100000)"
fill="#000000" stroke="none">
<path d="M10227 18474 c-1 -1 -780 -5 -1732 -9 -952 -3 -1764 -8 -1805 -10
-115 -6 -306 -23 -350 -31 -14 -2 -44 -7 -66 -10 -23 -2 -53 -7 -65 -9 -13 -3
-53 -10 -89 -16 -217 -38 -623 -158 -805 -239 -22 -10 -69 -30 -105 -45 -143
-60 -390 -192 -565 -302 -110 -69 -339 -232 -391 -278 -6 -5 -33 -28 -60 -50
-314 -257 -716 -721 -888 -1026 -10 -18 -25 -39 -32 -47 -8 -7 -14 -17 -14
-21 0 -5 -22 -46 -48 -92 -77 -133 -141 -243 -152 -259 -9 -15 -64 -109 -121
-210 -18 -30 -77 -131 -132 -225 -54 -93 -118 -201 -140 -240 -22 -38 -60
-101 -82 -140 -23 -38 -52 -88 -64 -110 -12 -22 -27 -49 -34 -60 -19 -31 -56
-93 -78 -131 -51 -92 -244 -423 -265 -454 -12 -19 -35 -58 -51 -86 -15 -29
-57 -102 -93 -163 -83 -143 -76 -131 -139 -239 -30 -51 -58 -95 -63 -98 -4 -3
-6 -9 -3 -14 3 -4 -2 -13 -10 -20 -8 -7 -15 -16 -15 -21 0 -5 -15 -32 -33 -61
-19 -29 -45 -73 -59 -98 -14 -25 -41 -72 -61 -105 -19 -33 -45 -78 -58 -101
-95 -163 -182 -312 -192 -329 -7 -11 -27 -43 -44 -72 -18 -30 -33 -55 -33 -57
0 -2 -50 -88 -110 -191 -61 -103 -110 -189 -110 -190 0 -2 -83 -145 -119 -205
-5 -8 -58 -98 -117 -200 -59 -102 -144 -243 -187 -315 -113 -184 -137 -228
-231 -420 -93 -191 -139 -300 -203 -490 -41 -121 -115 -391 -126 -460 -3 -16
-12 -68 -21 -115 -22 -120 -36 -209 -41 -275 -2 -16 -7 -70 -11 -120 -10 -112
-11 -562 -1 -670 10 -102 38 -328 42 -335 2 -3 6 -26 10 -50 5 -36 38 -195 60
-292 10 -43 80 -272 105 -343 48 -137 109 -285 170 -413 33 -67 60 -126 61
-130 0 -4 9 -18 19 -32 10 -14 29 -47 44 -75 15 -27 38 -68 51 -90 14 -22 43
-71 65 -110 44 -76 48 -82 101 -170 20 -33 47 -80 61 -105 14 -25 94 -162 178
-305 84 -143 161 -276 172 -295 39 -68 654 -1118 734 -1255 13 -22 44 -76 69
-120 49 -85 61 -105 86 -145 9 -14 27 -45 41 -70 14 -25 110 -189 213 -365
103 -176 197 -338 210 -360 12 -22 155 -265 316 -540 161 -275 343 -588 404
-695 157 -274 245 -409 391 -596 169 -217 478 -537 719 -745 363 -314 816
-582 1250 -741 187 -68 409 -134 524 -155 14 -2 28 -6 32 -8 4 -3 24 -7 45
-10 22 -4 71 -12 109 -20 74 -15 255 -39 390 -52 83 -8 1532 -8 4125 1 1391 5
1815 10 1880 20 14 3 54 7 90 10 77 7 133 14 175 21 17 2 48 7 70 10 142 21
533 112 574 135 9 4 18 8 21 8 21 -1 277 90 347 122 24 11 45 20 48 20 22 0
284 130 430 212 187 106 420 260 530 350 11 9 40 33 65 53 25 21 70 58 100 83
63 54 328 315 386 382 236 272 376 481 617 920 16 30 33 60 37 65 4 6 18 28
30 50 52 93 72 127 145 255 122 213 236 412 258 450 26 47 170 298 196 341 11
19 28 50 39 69 10 19 90 159 177 310 87 151 168 293 180 315 12 22 35 63 52
90 16 28 32 57 36 65 4 8 16 30 28 49 11 18 64 110 118 205 54 94 216 378 361
631 145 253 271 474 280 490 17 30 345 602 391 682 13 23 62 108 109 189 163
281 175 305 260 490 32 69 80 182 84 199 4 12 15 44 26 70 28 67 101 315 135
455 7 33 44 217 50 250 3 19 10 60 15 90 5 30 12 82 15 115 4 33 8 74 11 90
25 196 25 728 0 910 -2 17 -7 57 -10 90 -6 50 -28 187 -52 310 -7 38 -46 198
-73 295 -43 158 -147 437 -228 607 -37 79 -166 309 -274 488 -10 17 -24 41
-32 55 -29 52 -202 349 -267 460 -37 63 -77 131 -87 150 -11 19 -147 253 -303
520 -156 267 -371 636 -478 820 -107 184 -222 382 -256 440 -69 118 -62 106
-135 232 -30 51 -62 107 -71 123 -10 17 -64 109 -120 205 -57 96 -110 189
-119 205 -16 29 -110 189 -211 360 -26 44 -58 100 -72 125 -14 25 -97 167
-183 315 -87 149 -166 285 -177 303 -211 372 -393 625 -628 876 -70 75 -369
371 -410 406 -14 12 -41 36 -60 54 -19 17 -79 67 -132 109 -441 354 -953 619
-1503 777 -60 18 -120 34 -132 36 -12 2 -35 9 -50 15 -16 6 -29 10 -31 9 -4
-3 -86 11 -117 20 -16 5 -48 12 -70 15 -22 3 -80 12 -130 20 -49 7 -121 17
-160 20 -38 4 -78 10 -90 13 -16 5 -2283 10 -2288 6z"/>
</g>
</svg>
